<mxfile host="app.diagrams.net" modified="2020-12-16T03:53:19.490Z" agent="5.0 (Windows NT 10.0; Win64; x64) AppleWebKit/537.36 (KHTML, like Gecko) Chrome/87.0.4280.88 Safari/537.36" etag="rNPKAQszRI-O7emaJQ14" version="13.10.9" type="github" pages="3">
  <diagram id="C5RBs43oDa-KdzZeNtuy" name="Page-1">
    <mxGraphModel dx="338" dy="744" grid="1" gridSize="10" guides="1" tooltips="1" connect="1" arrows="1" fold="1" page="1" pageScale="1" pageWidth="827" pageHeight="1169" math="0" shadow="0">
      <root>
        <mxCell id="WIyWlLk6GJQsqaUBKTNV-0" />
        <mxCell id="WIyWlLk6GJQsqaUBKTNV-1" parent="WIyWlLk6GJQsqaUBKTNV-0" />
        <mxCell id="fbVdaYZra0Y-noZietLv-6" style="edgeStyle=orthogonalEdgeStyle;rounded=0;orthogonalLoop=1;jettySize=auto;html=1;exitX=0.5;exitY=1;exitDx=0;exitDy=0;entryX=0.5;entryY=0;entryDx=0;entryDy=0;" parent="WIyWlLk6GJQsqaUBKTNV-1" source="WIyWlLk6GJQsqaUBKTNV-3" target="fbVdaYZra0Y-noZietLv-1" edge="1">
          <mxGeometry relative="1" as="geometry" />
        </mxCell>
        <mxCell id="WIyWlLk6GJQsqaUBKTNV-3" value="HuaweiApplication初始化，设置Huawei渠道" style="rounded=1;whiteSpace=wrap;html=1;fontSize=14;glass=0;strokeWidth=1;shadow=0;fontStyle=1" parent="WIyWlLk6GJQsqaUBKTNV-1" vertex="1">
          <mxGeometry x="103.75" y="130" width="175" height="40" as="geometry" />
        </mxCell>
        <mxCell id="fbVdaYZra0Y-noZietLv-7" style="edgeStyle=orthogonalEdgeStyle;rounded=0;orthogonalLoop=1;jettySize=auto;html=1;exitX=0.5;exitY=1;exitDx=0;exitDy=0;entryX=0.5;entryY=0;entryDx=0;entryDy=0;" parent="WIyWlLk6GJQsqaUBKTNV-1" source="fbVdaYZra0Y-noZietLv-1" target="fbVdaYZra0Y-noZietLv-2" edge="1">
          <mxGeometry relative="1" as="geometry" />
        </mxCell>
        <mxCell id="fbVdaYZra0Y-noZietLv-1" value="HuaweiChannel初始化回调sdk监听" style="rounded=1;whiteSpace=wrap;html=1;fontSize=14;glass=0;strokeWidth=1;shadow=0;fontStyle=1" parent="WIyWlLk6GJQsqaUBKTNV-1" vertex="1">
          <mxGeometry x="100" y="200" width="172.5" height="50" as="geometry" />
        </mxCell>
        <mxCell id="fbVdaYZra0Y-noZietLv-12" style="edgeStyle=orthogonalEdgeStyle;rounded=0;orthogonalLoop=1;jettySize=auto;html=1;exitX=0.5;exitY=1;exitDx=0;exitDy=0;entryX=0.5;entryY=0;entryDx=0;entryDy=0;" parent="WIyWlLk6GJQsqaUBKTNV-1" source="fbVdaYZra0Y-noZietLv-2" target="fbVdaYZra0Y-noZietLv-10" edge="1">
          <mxGeometry relative="1" as="geometry" />
        </mxCell>
        <mxCell id="fbVdaYZra0Y-noZietLv-2" value="ChannelLoginManager监听登录，返回loginType、token、uid" style="rounded=1;whiteSpace=wrap;html=1;fontSize=14;glass=0;strokeWidth=1;shadow=0;fontStyle=1" parent="WIyWlLk6GJQsqaUBKTNV-1" vertex="1">
          <mxGeometry x="100" y="320" width="170" height="60" as="geometry" />
        </mxCell>
        <mxCell id="fbVdaYZra0Y-noZietLv-5" style="edgeStyle=orthogonalEdgeStyle;rounded=0;orthogonalLoop=1;jettySize=auto;html=1;exitX=0.5;exitY=1;exitDx=0;exitDy=0;entryX=0.5;entryY=0;entryDx=0;entryDy=0;" parent="WIyWlLk6GJQsqaUBKTNV-1" source="fbVdaYZra0Y-noZietLv-3" target="fbVdaYZra0Y-noZietLv-4" edge="1">
          <mxGeometry relative="1" as="geometry" />
        </mxCell>
        <mxCell id="fbVdaYZra0Y-noZietLv-3" value="平台激活" style="rounded=1;whiteSpace=wrap;html=1;fontSize=14;glass=0;strokeWidth=1;shadow=0;fontStyle=1;fillColor=#0050ef;strokeColor=#001DBC;fontColor=#ffffff;" parent="WIyWlLk6GJQsqaUBKTNV-1" vertex="1">
          <mxGeometry x="317.5" y="70" width="120" height="30" as="geometry" />
        </mxCell>
        <mxCell id="fbVdaYZra0Y-noZietLv-13" style="edgeStyle=orthogonalEdgeStyle;rounded=0;orthogonalLoop=1;jettySize=auto;html=1;exitX=0.5;exitY=1;exitDx=0;exitDy=0;" parent="WIyWlLk6GJQsqaUBKTNV-1" source="fbVdaYZra0Y-noZietLv-4" target="fbVdaYZra0Y-noZietLv-9" edge="1">
          <mxGeometry relative="1" as="geometry" />
        </mxCell>
        <mxCell id="fbVdaYZra0Y-noZietLv-4" value="渠道激活" style="rounded=1;whiteSpace=wrap;html=1;fontSize=14;glass=0;strokeWidth=1;shadow=0;fillColor=#ffe6cc;strokeColor=#d79b00;fontStyle=1" parent="WIyWlLk6GJQsqaUBKTNV-1" vertex="1">
          <mxGeometry x="317.5" y="130" width="122.5" height="130" as="geometry" />
        </mxCell>
        <mxCell id="fbVdaYZra0Y-noZietLv-8" value="渠道账号映射37账号" style="rounded=1;whiteSpace=wrap;html=1;fontSize=14;glass=0;strokeWidth=1;shadow=0;fontStyle=1;fillColor=#dae8fc;strokeColor=#6c8ebf;" parent="WIyWlLk6GJQsqaUBKTNV-1" vertex="1">
          <mxGeometry x="317.5" y="420" width="122.5" height="280" as="geometry" />
        </mxCell>
        <mxCell id="fbVdaYZra0Y-noZietLv-14" style="edgeStyle=orthogonalEdgeStyle;rounded=0;orthogonalLoop=1;jettySize=auto;html=1;exitX=0.5;exitY=1;exitDx=0;exitDy=0;entryX=0.5;entryY=0;entryDx=0;entryDy=0;" parent="WIyWlLk6GJQsqaUBKTNV-1" source="fbVdaYZra0Y-noZietLv-9" target="fbVdaYZra0Y-noZietLv-8" edge="1">
          <mxGeometry relative="1" as="geometry" />
        </mxCell>
        <mxCell id="fbVdaYZra0Y-noZietLv-9" value="渠道登录成功" style="rounded=1;whiteSpace=wrap;html=1;fontSize=14;glass=0;strokeWidth=1;shadow=0;fillColor=#ffe6cc;strokeColor=#d79b00;fontStyle=1" parent="WIyWlLk6GJQsqaUBKTNV-1" vertex="1">
          <mxGeometry x="318.75" y="320" width="120" height="50" as="geometry" />
        </mxCell>
        <mxCell id="fbVdaYZra0Y-noZietLv-16" style="edgeStyle=orthogonalEdgeStyle;rounded=0;orthogonalLoop=1;jettySize=auto;html=1;exitX=0.5;exitY=1;exitDx=0;exitDy=0;entryX=0.5;entryY=0;entryDx=0;entryDy=0;" parent="WIyWlLk6GJQsqaUBKTNV-1" source="fbVdaYZra0Y-noZietLv-10" target="fbVdaYZra0Y-noZietLv-15" edge="1">
          <mxGeometry relative="1" as="geometry" />
        </mxCell>
        <mxCell id="fbVdaYZra0Y-noZietLv-10" value="HuaweiIdAuthManager华为登录服务入口获取AuthHuaweiId对象" style="rounded=1;whiteSpace=wrap;html=1;fontSize=14;glass=0;strokeWidth=1;shadow=0;fontStyle=1" parent="WIyWlLk6GJQsqaUBKTNV-1" vertex="1">
          <mxGeometry x="96.88" y="430" width="176.25" height="60" as="geometry" />
        </mxCell>
        <mxCell id="fbVdaYZra0Y-noZietLv-18" style="edgeStyle=orthogonalEdgeStyle;rounded=0;orthogonalLoop=1;jettySize=auto;html=1;exitX=0.5;exitY=1;exitDx=0;exitDy=0;entryX=0.5;entryY=0;entryDx=0;entryDy=0;" parent="WIyWlLk6GJQsqaUBKTNV-1" source="fbVdaYZra0Y-noZietLv-15" target="fbVdaYZra0Y-noZietLv-17" edge="1">
          <mxGeometry relative="1" as="geometry" />
        </mxCell>
        <mxCell id="fbVdaYZra0Y-noZietLv-15" value="通过Player类返回游戏玩家的具体信息，回传后端映射" style="rounded=1;whiteSpace=wrap;html=1;fontSize=14;glass=0;strokeWidth=1;shadow=0;fontStyle=1" parent="WIyWlLk6GJQsqaUBKTNV-1" vertex="1">
          <mxGeometry x="96.25" y="530" width="177.5" height="70" as="geometry" />
        </mxCell>
        <mxCell id="fbVdaYZra0Y-noZietLv-17" value="解析返回数据，存储用户信息token、uid、disname、uname" style="rounded=1;whiteSpace=wrap;html=1;fontSize=14;glass=0;strokeWidth=1;shadow=0;fontStyle=1" parent="WIyWlLk6GJQsqaUBKTNV-1" vertex="1">
          <mxGeometry x="100.94" y="640" width="168.12" height="60" as="geometry" />
        </mxCell>
        <mxCell id="fbVdaYZra0Y-noZietLv-24" style="edgeStyle=orthogonalEdgeStyle;rounded=0;orthogonalLoop=1;jettySize=auto;html=1;exitX=0.5;exitY=1;exitDx=0;exitDy=0;entryX=0.5;entryY=0;entryDx=0;entryDy=0;" parent="WIyWlLk6GJQsqaUBKTNV-1" source="fbVdaYZra0Y-noZietLv-19" target="fbVdaYZra0Y-noZietLv-20" edge="1">
          <mxGeometry relative="1" as="geometry" />
        </mxCell>
        <mxCell id="fbVdaYZra0Y-noZietLv-19" value="GpLoginManager初始化" style="rounded=1;whiteSpace=wrap;html=1;fontSize=14;glass=0;strokeWidth=1;shadow=0;fontStyle=1" parent="WIyWlLk6GJQsqaUBKTNV-1" vertex="1">
          <mxGeometry x="503.75" y="130" width="175" height="40" as="geometry" />
        </mxCell>
        <mxCell id="fbVdaYZra0Y-noZietLv-29" style="edgeStyle=orthogonalEdgeStyle;rounded=0;orthogonalLoop=1;jettySize=auto;html=1;exitX=0.5;exitY=1;exitDx=0;exitDy=0;entryX=0.5;entryY=0;entryDx=0;entryDy=0;fontSize=14;" parent="WIyWlLk6GJQsqaUBKTNV-1" source="fbVdaYZra0Y-noZietLv-20" target="fbVdaYZra0Y-noZietLv-21" edge="1">
          <mxGeometry relative="1" as="geometry" />
        </mxCell>
        <mxCell id="fbVdaYZra0Y-noZietLv-20" value="添加Google登录的默认配置GoogleSignInOptions" style="rounded=1;whiteSpace=wrap;html=1;fontSize=14;glass=0;strokeWidth=1;shadow=0;fontStyle=1" parent="WIyWlLk6GJQsqaUBKTNV-1" vertex="1">
          <mxGeometry x="502.5" y="210" width="177.5" height="50" as="geometry" />
        </mxCell>
        <mxCell id="fbVdaYZra0Y-noZietLv-26" style="edgeStyle=orthogonalEdgeStyle;rounded=0;orthogonalLoop=1;jettySize=auto;html=1;exitX=0.5;exitY=1;exitDx=0;exitDy=0;entryX=0.5;entryY=0;entryDx=0;entryDy=0;" parent="WIyWlLk6GJQsqaUBKTNV-1" source="fbVdaYZra0Y-noZietLv-21" target="fbVdaYZra0Y-noZietLv-22" edge="1">
          <mxGeometry relative="1" as="geometry" />
        </mxCell>
        <mxCell id="fbVdaYZra0Y-noZietLv-21" value="GoogleApiClient连接；从&lt;a href=&quot;https://developer.android.com/reference/android/app/Activity.html#onActivityResult(int,%20int,%20android.content.Intent)&quot; style=&quot;font-family: &amp;quot;roboto mono&amp;quot;, monospace; font-size: 14px; text-align: left; box-sizing: inherit; color: rgb(26, 115, 232); outline: 0px;&quot;&gt;onActivityResult&lt;/a&gt;中提取&lt;span style=&quot;color: rgb(32, 33, 36); font-family: roboto, &amp;quot;noto sans&amp;quot;, &amp;quot;noto sans jp&amp;quot;, &amp;quot;noto sans kr&amp;quot;, &amp;quot;noto naskh arabic&amp;quot;, &amp;quot;noto sans thai&amp;quot;, &amp;quot;noto sans hebrew&amp;quot;, &amp;quot;noto sans bengali&amp;quot;, sans-serif; font-size: 14px; text-align: left; background-color: rgba(255, 255, 255, 0.95);&quot;&gt;&amp;nbsp;&lt;/span&gt;&lt;code translate=&quot;no&quot; dir=&quot;ltr&quot; style=&quot;box-sizing: inherit; background: 0px center rgba(255, 255, 255, 0.95); color: rgb(55, 71, 79); font-stretch: normal; font-size: 14px; line-height: 1; font-family: &amp;quot;roboto mono&amp;quot;, monospace; padding: 0px; text-align: left; word-break: normal; direction: ltr;&quot;&gt;&lt;a href=&quot;https://developers.google.com/android/reference/com/google/android/gms/auth/api/signin/GoogleSignInResult&quot; style=&quot;box-sizing: inherit; color: rgb(26, 115, 232); outline: 0px; font-size: 14px;&quot;&gt;GoogleSignInResult&lt;/a&gt;&lt;/code&gt;&lt;span style=&quot;color: rgb(32, 33, 36); font-family: roboto, &amp;quot;noto sans&amp;quot;, &amp;quot;noto sans jp&amp;quot;, &amp;quot;noto sans kr&amp;quot;, &amp;quot;noto naskh arabic&amp;quot;, &amp;quot;noto sans thai&amp;quot;, &amp;quot;noto sans hebrew&amp;quot;, &amp;quot;noto sans bengali&amp;quot;, sans-serif; font-size: 14px; text-align: left; background-color: rgba(255, 255, 255, 0.95);&quot;&gt;&amp;nbsp;&lt;/span&gt;" style="rounded=1;whiteSpace=wrap;html=1;fontSize=14;glass=0;strokeWidth=1;shadow=0;fontStyle=1" parent="WIyWlLk6GJQsqaUBKTNV-1" vertex="1">
          <mxGeometry x="501.25" y="330" width="180" height="70" as="geometry" />
        </mxCell>
        <mxCell id="fbVdaYZra0Y-noZietLv-27" style="edgeStyle=orthogonalEdgeStyle;rounded=0;orthogonalLoop=1;jettySize=auto;html=1;exitX=0.5;exitY=1;exitDx=0;exitDy=0;entryX=0.5;entryY=0;entryDx=0;entryDy=0;" parent="WIyWlLk6GJQsqaUBKTNV-1" source="fbVdaYZra0Y-noZietLv-22" target="fbVdaYZra0Y-noZietLv-23" edge="1">
          <mxGeometry relative="1" as="geometry" />
        </mxCell>
        <mxCell id="fbVdaYZra0Y-noZietLv-22" value="传递token、appid&lt;br&gt;回后端映射" style="rounded=1;whiteSpace=wrap;html=1;fontSize=14;glass=0;strokeWidth=1;shadow=0;fontStyle=1" parent="WIyWlLk6GJQsqaUBKTNV-1" vertex="1">
          <mxGeometry x="502.5" y="440" width="177.5" height="50" as="geometry" />
        </mxCell>
        <mxCell id="fbVdaYZra0Y-noZietLv-23" value="保存基本信息" style="rounded=1;whiteSpace=wrap;html=1;fontSize=14;glass=0;strokeWidth=1;shadow=0;fontStyle=1" parent="WIyWlLk6GJQsqaUBKTNV-1" vertex="1">
          <mxGeometry x="503.75" y="520" width="175" height="40" as="geometry" />
        </mxCell>
        <mxCell id="fbVdaYZra0Y-noZietLv-28" value="&lt;span style=&quot;&quot;&gt;传递请求码状态码和数据&lt;/span&gt;" style="text;html=1;strokeColor=none;fillColor=none;align=center;verticalAlign=middle;whiteSpace=wrap;rounded=0;fontSize=14;fontStyle=0" parent="WIyWlLk6GJQsqaUBKTNV-1" vertex="1">
          <mxGeometry x="70" y="270" width="120" height="30" as="geometry" />
        </mxCell>
      </root>
    </mxGraphModel>
  </diagram>
  <diagram id="xra8vw4jtXdkxOKpDVtl" name="Page-2">
    <mxGraphModel dx="1662" dy="762" grid="1" gridSize="10" guides="1" tooltips="1" connect="1" arrows="1" fold="1" page="1" pageScale="1" pageWidth="827" pageHeight="1169" math="0" shadow="0">
      <root>
        <mxCell id="RhdTb3wDZGcioBeJ-O-3-0" />
        <mxCell id="RhdTb3wDZGcioBeJ-O-3-1" parent="RhdTb3wDZGcioBeJ-O-3-0" />
        <mxCell id="RhdTb3wDZGcioBeJ-O-3-16" style="edgeStyle=orthogonalEdgeStyle;rounded=0;orthogonalLoop=1;jettySize=auto;html=1;exitX=0.5;exitY=1;exitDx=0;exitDy=0;entryX=0.5;entryY=0;entryDx=0;entryDy=0;" edge="1" parent="RhdTb3wDZGcioBeJ-O-3-1" source="RhdTb3wDZGcioBeJ-O-3-2" target="RhdTb3wDZGcioBeJ-O-3-5">
          <mxGeometry relative="1" as="geometry" />
        </mxCell>
        <mxCell id="RhdTb3wDZGcioBeJ-O-3-2" value="海外登录" style="rounded=1;whiteSpace=wrap;html=1;" vertex="1" parent="RhdTb3wDZGcioBeJ-O-3-1">
          <mxGeometry x="120" y="70" width="90" height="30" as="geometry" />
        </mxCell>
        <mxCell id="RhdTb3wDZGcioBeJ-O-3-34" style="edgeStyle=orthogonalEdgeStyle;rounded=0;orthogonalLoop=1;jettySize=auto;html=1;exitX=0.5;exitY=1;exitDx=0;exitDy=0;entryX=0.5;entryY=0;entryDx=0;entryDy=0;" edge="1" parent="RhdTb3wDZGcioBeJ-O-3-1" source="RhdTb3wDZGcioBeJ-O-3-3" target="RhdTb3wDZGcioBeJ-O-3-17">
          <mxGeometry relative="1" as="geometry" />
        </mxCell>
        <mxCell id="RhdTb3wDZGcioBeJ-O-3-3" value="海外支付" style="rounded=1;whiteSpace=wrap;html=1;" vertex="1" parent="RhdTb3wDZGcioBeJ-O-3-1">
          <mxGeometry x="400" y="70" width="100" height="30" as="geometry" />
        </mxCell>
        <mxCell id="RhdTb3wDZGcioBeJ-O-3-11" style="edgeStyle=orthogonalEdgeStyle;rounded=0;orthogonalLoop=1;jettySize=auto;html=1;exitX=0.5;exitY=1;exitDx=0;exitDy=0;entryX=0.43;entryY=0.05;entryDx=0;entryDy=0;entryPerimeter=0;" edge="1" parent="RhdTb3wDZGcioBeJ-O-3-1" source="RhdTb3wDZGcioBeJ-O-3-5" target="RhdTb3wDZGcioBeJ-O-3-6">
          <mxGeometry relative="1" as="geometry" />
        </mxCell>
        <mxCell id="RhdTb3wDZGcioBeJ-O-3-12" style="edgeStyle=orthogonalEdgeStyle;rounded=0;orthogonalLoop=1;jettySize=auto;html=1;exitX=0;exitY=0.5;exitDx=0;exitDy=0;entryX=0.5;entryY=0;entryDx=0;entryDy=0;" edge="1" parent="RhdTb3wDZGcioBeJ-O-3-1" source="RhdTb3wDZGcioBeJ-O-3-5" target="RhdTb3wDZGcioBeJ-O-3-7">
          <mxGeometry relative="1" as="geometry" />
        </mxCell>
        <mxCell id="RhdTb3wDZGcioBeJ-O-3-5" value="设备账号登录" style="rhombus;whiteSpace=wrap;html=1;" vertex="1" parent="RhdTb3wDZGcioBeJ-O-3-1">
          <mxGeometry x="125" y="130" width="80" height="80" as="geometry" />
        </mxCell>
        <mxCell id="RhdTb3wDZGcioBeJ-O-3-6" value="华为账号登录页面" style="rounded=1;whiteSpace=wrap;html=1;" vertex="1" parent="RhdTb3wDZGcioBeJ-O-3-1">
          <mxGeometry x="120" y="240" width="100" height="40" as="geometry" />
        </mxCell>
        <mxCell id="RhdTb3wDZGcioBeJ-O-3-7" value="自动登录" style="rounded=1;whiteSpace=wrap;html=1;" vertex="1" parent="RhdTb3wDZGcioBeJ-O-3-1">
          <mxGeometry x="10" y="240" width="100" height="40" as="geometry" />
        </mxCell>
        <mxCell id="RhdTb3wDZGcioBeJ-O-3-9" value="华为账号登录页面" style="rounded=1;whiteSpace=wrap;html=1;" vertex="1" parent="RhdTb3wDZGcioBeJ-O-3-1">
          <mxGeometry x="405" y="360" width="100" height="40" as="geometry" />
        </mxCell>
        <mxCell id="RhdTb3wDZGcioBeJ-O-3-10" value="用户登录（hw、fb）" style="rounded=1;whiteSpace=wrap;html=1;" vertex="1" parent="RhdTb3wDZGcioBeJ-O-3-1">
          <mxGeometry x="530" y="280" width="140" height="40" as="geometry" />
        </mxCell>
        <mxCell id="RhdTb3wDZGcioBeJ-O-3-22" style="edgeStyle=orthogonalEdgeStyle;rounded=0;orthogonalLoop=1;jettySize=auto;html=1;exitX=1;exitY=0.5;exitDx=0;exitDy=0;" edge="1" parent="RhdTb3wDZGcioBeJ-O-3-1" source="RhdTb3wDZGcioBeJ-O-3-17" target="RhdTb3wDZGcioBeJ-O-3-18">
          <mxGeometry relative="1" as="geometry" />
        </mxCell>
        <mxCell id="RhdTb3wDZGcioBeJ-O-3-17" value="已登录" style="rhombus;whiteSpace=wrap;html=1;" vertex="1" parent="RhdTb3wDZGcioBeJ-O-3-1">
          <mxGeometry x="410" y="120" width="80" height="50" as="geometry" />
        </mxCell>
        <mxCell id="RhdTb3wDZGcioBeJ-O-3-18" value="调起支付" style="rounded=1;whiteSpace=wrap;html=1;" vertex="1" parent="RhdTb3wDZGcioBeJ-O-3-1">
          <mxGeometry x="550" y="125" width="100" height="40" as="geometry" />
        </mxCell>
        <mxCell id="RhdTb3wDZGcioBeJ-O-3-23" style="edgeStyle=orthogonalEdgeStyle;rounded=0;orthogonalLoop=1;jettySize=auto;html=1;exitX=1;exitY=0.5;exitDx=0;exitDy=0;entryX=0;entryY=0.5;entryDx=0;entryDy=0;" edge="1" parent="RhdTb3wDZGcioBeJ-O-3-1" source="RhdTb3wDZGcioBeJ-O-3-19" target="RhdTb3wDZGcioBeJ-O-3-20">
          <mxGeometry relative="1" as="geometry" />
        </mxCell>
        <mxCell id="RhdTb3wDZGcioBeJ-O-3-25" style="edgeStyle=orthogonalEdgeStyle;rounded=0;orthogonalLoop=1;jettySize=auto;html=1;exitX=0.5;exitY=1;exitDx=0;exitDy=0;entryX=0.44;entryY=0.05;entryDx=0;entryDy=0;entryPerimeter=0;" edge="1" parent="RhdTb3wDZGcioBeJ-O-3-1" source="RhdTb3wDZGcioBeJ-O-3-19" target="RhdTb3wDZGcioBeJ-O-3-24">
          <mxGeometry relative="1" as="geometry" />
        </mxCell>
        <mxCell id="RhdTb3wDZGcioBeJ-O-3-19" value="isEnvReady&lt;br&gt;监听" style="rhombus;whiteSpace=wrap;html=1;" vertex="1" parent="RhdTb3wDZGcioBeJ-O-3-1">
          <mxGeometry x="405" y="190" width="90" height="70" as="geometry" />
        </mxCell>
        <mxCell id="RhdTb3wDZGcioBeJ-O-3-27" value="" style="edgeStyle=orthogonalEdgeStyle;rounded=0;orthogonalLoop=1;jettySize=auto;html=1;" edge="1" parent="RhdTb3wDZGcioBeJ-O-3-1" source="RhdTb3wDZGcioBeJ-O-3-20" target="RhdTb3wDZGcioBeJ-O-3-10">
          <mxGeometry relative="1" as="geometry" />
        </mxCell>
        <mxCell id="RhdTb3wDZGcioBeJ-O-3-20" value="设备账号已登录" style="rounded=1;whiteSpace=wrap;html=1;" vertex="1" parent="RhdTb3wDZGcioBeJ-O-3-1">
          <mxGeometry x="550" y="205" width="100" height="40" as="geometry" />
        </mxCell>
        <mxCell id="RhdTb3wDZGcioBeJ-O-3-26" style="edgeStyle=orthogonalEdgeStyle;rounded=0;orthogonalLoop=1;jettySize=auto;html=1;exitX=0.5;exitY=1;exitDx=0;exitDy=0;entryX=0.5;entryY=0;entryDx=0;entryDy=0;" edge="1" parent="RhdTb3wDZGcioBeJ-O-3-1" source="RhdTb3wDZGcioBeJ-O-3-24" target="RhdTb3wDZGcioBeJ-O-3-9">
          <mxGeometry relative="1" as="geometry" />
        </mxCell>
        <mxCell id="RhdTb3wDZGcioBeJ-O-3-24" value="设备账号未登录" style="rounded=1;whiteSpace=wrap;html=1;" vertex="1" parent="RhdTb3wDZGcioBeJ-O-3-1">
          <mxGeometry x="405" y="280" width="100" height="40" as="geometry" />
        </mxCell>
        <mxCell id="RhdTb3wDZGcioBeJ-O-3-28" value="是" style="text;html=1;strokeColor=none;fillColor=none;align=center;verticalAlign=middle;whiteSpace=wrap;rounded=0;" vertex="1" parent="RhdTb3wDZGcioBeJ-O-3-1">
          <mxGeometry x="490" y="125" width="40" height="20" as="geometry" />
        </mxCell>
        <mxCell id="RhdTb3wDZGcioBeJ-O-3-29" value="否" style="text;html=1;strokeColor=none;fillColor=none;align=center;verticalAlign=middle;whiteSpace=wrap;rounded=0;" vertex="1" parent="RhdTb3wDZGcioBeJ-O-3-1">
          <mxGeometry x="450" y="170" width="40" height="20" as="geometry" />
        </mxCell>
        <mxCell id="RhdTb3wDZGcioBeJ-O-3-30" value="否" style="text;html=1;strokeColor=none;fillColor=none;align=center;verticalAlign=middle;whiteSpace=wrap;rounded=0;" vertex="1" parent="RhdTb3wDZGcioBeJ-O-3-1">
          <mxGeometry x="170" y="210" width="40" height="20" as="geometry" />
        </mxCell>
        <mxCell id="RhdTb3wDZGcioBeJ-O-3-31" value="是" style="text;html=1;strokeColor=none;fillColor=none;align=center;verticalAlign=middle;whiteSpace=wrap;rounded=0;" vertex="1" parent="RhdTb3wDZGcioBeJ-O-3-1">
          <mxGeometry x="70" y="145" width="40" height="20" as="geometry" />
        </mxCell>
        <mxCell id="RhdTb3wDZGcioBeJ-O-3-32" style="edgeStyle=orthogonalEdgeStyle;rounded=0;orthogonalLoop=1;jettySize=auto;html=1;exitX=0;exitY=0;exitDx=0;exitDy=0;entryX=0;entryY=1;entryDx=0;entryDy=0;" edge="1" parent="RhdTb3wDZGcioBeJ-O-3-1" source="RhdTb3wDZGcioBeJ-O-3-29" target="RhdTb3wDZGcioBeJ-O-3-29">
          <mxGeometry relative="1" as="geometry" />
        </mxCell>
        <mxCell id="RhdTb3wDZGcioBeJ-O-3-35" value="是" style="text;html=1;strokeColor=none;fillColor=none;align=center;verticalAlign=middle;whiteSpace=wrap;rounded=0;" vertex="1" parent="RhdTb3wDZGcioBeJ-O-3-1">
          <mxGeometry x="490" y="205" width="40" height="20" as="geometry" />
        </mxCell>
        <mxCell id="RhdTb3wDZGcioBeJ-O-3-36" value="否" style="text;html=1;strokeColor=none;fillColor=none;align=center;verticalAlign=middle;whiteSpace=wrap;rounded=0;" vertex="1" parent="RhdTb3wDZGcioBeJ-O-3-1">
          <mxGeometry x="450" y="260" width="40" height="20" as="geometry" />
        </mxCell>
      </root>
    </mxGraphModel>
  </diagram>
  <diagram id="daXZu8_sciVqNl9TjUtt" name="Page-3">
    <mxGraphModel dx="1003" dy="744" grid="1" gridSize="10" guides="1" tooltips="1" connect="1" arrows="1" fold="1" page="1" pageScale="1" pageWidth="827" pageHeight="1169" math="0" shadow="0">
      <root>
        <mxCell id="cEqL7zGj5G2X68_Gkax9-0" />
        <mxCell id="cEqL7zGj5G2X68_Gkax9-1" parent="cEqL7zGj5G2X68_Gkax9-0" />
        <mxCell id="cEqL7zGj5G2X68_Gkax9-2" value="&lt;pre style=&quot;background-color: #2b2b2b ; color: #a9b7c6 ; font-family: &amp;#34;consolas&amp;#34; , monospace ; font-size: 11.3pt&quot;&gt;&lt;span style=&quot;color: #ffc66d&quot;&gt;setContentView&lt;/span&gt;(&lt;span style=&quot;color: #cc7832&quot;&gt;int &lt;/span&gt;layoutResID)&lt;/pre&gt;" style="text;html=1;strokeColor=none;fillColor=none;align=center;verticalAlign=middle;whiteSpace=wrap;rounded=0;" vertex="1" parent="cEqL7zGj5G2X68_Gkax9-1">
          <mxGeometry x="200" y="90" width="190" height="10" as="geometry" />
        </mxCell>
        <mxCell id="cEqL7zGj5G2X68_Gkax9-3" value="&lt;pre style=&quot;background-color: #2b2b2b ; color: #a9b7c6 ; font-family: &amp;#34;consolas&amp;#34; , monospace ; font-size: 11.3pt&quot;&gt;&lt;span style=&quot;color: #9876aa&quot;&gt;mLayoutInflater&lt;/span&gt;.inflate(layoutResID&lt;span style=&quot;color: #cc7832&quot;&gt;, &lt;/span&gt;&lt;span style=&quot;color: #9876aa&quot;&gt;mContentParent&lt;/span&gt;)&lt;span style=&quot;color: #cc7832&quot;&gt;;&lt;/span&gt;&lt;/pre&gt;" style="text;html=1;strokeColor=none;fillColor=none;align=center;verticalAlign=middle;whiteSpace=wrap;rounded=0;" vertex="1" parent="cEqL7zGj5G2X68_Gkax9-1">
          <mxGeometry x="360" y="120" width="40" height="20" as="geometry" />
        </mxCell>
        <mxCell id="cEqL7zGj5G2X68_Gkax9-4" value="&lt;pre style=&quot;background-color: #2b2b2b ; color: #a9b7c6 ; font-family: &amp;#34;consolas&amp;#34; , monospace ; font-size: 11.3pt&quot;&gt;XmlResourceParser parser = res.getLayout(resource)&lt;span style=&quot;color: #cc7832&quot;&gt;;&lt;/span&gt;&lt;/pre&gt;" style="text;html=1;strokeColor=none;fillColor=none;align=center;verticalAlign=middle;whiteSpace=wrap;rounded=0;" vertex="1" parent="cEqL7zGj5G2X68_Gkax9-1">
          <mxGeometry x="350" y="170" width="40" height="20" as="geometry" />
        </mxCell>
        <mxCell id="cEqL7zGj5G2X68_Gkax9-5" value="PhoneWindow" style="text;html=1;strokeColor=none;fillColor=none;align=center;verticalAlign=middle;whiteSpace=wrap;rounded=0;" vertex="1" parent="cEqL7zGj5G2X68_Gkax9-1">
          <mxGeometry x="80" y="120" width="40" height="20" as="geometry" />
        </mxCell>
        <mxCell id="cEqL7zGj5G2X68_Gkax9-6" value="LayoutInflater" style="text;html=1;strokeColor=none;fillColor=none;align=center;verticalAlign=middle;whiteSpace=wrap;rounded=0;" vertex="1" parent="cEqL7zGj5G2X68_Gkax9-1">
          <mxGeometry x="80" y="200" width="40" height="20" as="geometry" />
        </mxCell>
        <mxCell id="cEqL7zGj5G2X68_Gkax9-7" value="&lt;pre style=&quot;background-color: #2b2b2b ; color: #a9b7c6 ; font-family: &amp;#34;consolas&amp;#34; , monospace ; font-size: 11.3pt&quot;&gt;&lt;span style=&quot;color: #cc7832&quot;&gt;final &lt;/span&gt;AttributeSet attrs = Xml.&lt;span style=&quot;font-style: italic&quot;&gt;asAttributeSet&lt;/span&gt;(parser)&lt;span style=&quot;color: #cc7832&quot;&gt;;&lt;br&gt;&lt;/span&gt;&lt;/pre&gt;" style="text;html=1;strokeColor=none;fillColor=none;align=center;verticalAlign=middle;whiteSpace=wrap;rounded=0;" vertex="1" parent="cEqL7zGj5G2X68_Gkax9-1">
          <mxGeometry x="360" y="200" width="40" height="20" as="geometry" />
        </mxCell>
        <mxCell id="cEqL7zGj5G2X68_Gkax9-9" value="AppCompatDelegateImpl" style="text;html=1;strokeColor=none;fillColor=none;align=center;verticalAlign=middle;whiteSpace=wrap;rounded=0;" vertex="1" parent="cEqL7zGj5G2X68_Gkax9-1">
          <mxGeometry x="60" y="260" width="40" height="20" as="geometry" />
        </mxCell>
        <mxCell id="cEqL7zGj5G2X68_Gkax9-10" value="&lt;pre style=&quot;background-color: #2b2b2b ; color: #a9b7c6 ; font-family: &amp;#34;consolas&amp;#34; , monospace ; font-size: 11.3pt&quot;&gt;&lt;span style=&quot;color: #ffc66d&quot;&gt;onCreateView&lt;/span&gt;(View parent&lt;span style=&quot;color: #cc7832&quot;&gt;, &lt;/span&gt;String name&lt;span style=&quot;color: #cc7832&quot;&gt;, &lt;/span&gt;Context context&lt;span style=&quot;color: #cc7832&quot;&gt;, &lt;/span&gt;AttributeSet attrs)&lt;/pre&gt;" style="text;html=1;strokeColor=none;fillColor=none;align=center;verticalAlign=middle;whiteSpace=wrap;rounded=0;" vertex="1" parent="cEqL7zGj5G2X68_Gkax9-1">
          <mxGeometry x="450" y="260" width="40" height="20" as="geometry" />
        </mxCell>
        <mxCell id="cEqL7zGj5G2X68_Gkax9-11" value="&lt;div&gt;&lt;div class=&quot;document&quot;&gt;&lt;p class=&quot;paragraph text-align-type-left pap-line-1.8 pap-line-rule-auto pap-spacing-before-0pt pap-spacing-after-0pt&quot; style=&quot;text-align: left ; line-height: 180% ; margin-top: 0px ; margin-bottom: 0px&quot;&gt;&lt;span style=&quot;font-size: 11pt ; font-family: &amp;#34;sf pro&amp;#34; , &amp;#34;pingfang sc&amp;#34; , &amp;#34;microsoft yahei&amp;#34; , , &amp;#34;noto sans cjk sc&amp;#34; , sans-serif , &amp;#34;roboto&amp;#34; , &amp;#34;droid sans&amp;#34; , &amp;#34;helvetica&amp;#34; , &amp;#34;tahoma&amp;#34; , &amp;#34;arial&amp;#34; , &amp;#34;hiragino sans gb&amp;#34; , &amp;#34;heiti sc&amp;#34; ; color: rgb(17 , 17 , 17) ; background: transparent ; letter-spacing: 0pt ; vertical-align: baseline&quot;&gt;AppCompatTextView&lt;/span&gt;&lt;/p&gt;&lt;/div&gt;&lt;/div&gt;" style="text;html=1;strokeColor=none;fillColor=none;align=center;verticalAlign=middle;whiteSpace=wrap;rounded=0;" vertex="1" parent="cEqL7zGj5G2X68_Gkax9-1">
          <mxGeometry x="70" y="320" width="40" height="20" as="geometry" />
        </mxCell>
        <mxCell id="cEqL7zGj5G2X68_Gkax9-12" value="&lt;div&gt;&lt;div class=&quot;document&quot;&gt;&lt;p class=&quot;paragraph text-align-type-left pap-line-1.8 pap-line-rule-auto pap-spacing-before-0pt pap-spacing-after-0pt&quot; style=&quot;text-align: left ; line-height: 180% ; margin-top: 0px ; margin-bottom: 0px&quot;&gt;&lt;span style=&quot;font-size: 11.3pt ; font-family: &amp;#34;consolas&amp;#34; , monospace ; font-weight: 700 ; color: rgb(242 , 90 , 110) ; background: transparent ; letter-spacing: 0pt ; vertical-align: baseline&quot;&gt;loadFromAttributes&lt;/span&gt;&lt;span style=&quot;font-size: 11.3pt ; font-family: &amp;#34;consolas&amp;#34; , monospace ; color: rgb(169 , 183 , 198) ; background: transparent ; letter-spacing: 0pt ; vertical-align: baseline&quot;&gt;(&lt;/span&gt;&lt;span style=&quot;font-size: 11.3pt ; font-family: &amp;#34;consolas&amp;#34; , monospace ; color: rgb(51 , 51 , 51) ; background: transparent ; letter-spacing: 0pt ; vertical-align: baseline&quot;&gt;attrs&lt;/span&gt;&lt;span style=&quot;font-size: 11.3pt ; font-family: &amp;#34;consolas&amp;#34; , monospace ; color: rgb(51 , 51 , 51) ; background: transparent ; letter-spacing: 0pt ; vertical-align: baseline&quot;&gt;, defStyleAttr)&lt;/span&gt;&lt;/p&gt;&lt;/div&gt;&lt;/div&gt;" style="text;html=1;strokeColor=none;fillColor=none;align=center;verticalAlign=middle;whiteSpace=wrap;rounded=0;" vertex="1" parent="cEqL7zGj5G2X68_Gkax9-1">
          <mxGeometry x="170" y="320" width="380" height="20" as="geometry" />
        </mxCell>
        <mxCell id="cEqL7zGj5G2X68_Gkax9-13" value="" style="endArrow=classic;html=1;" edge="1" parent="cEqL7zGj5G2X68_Gkax9-1">
          <mxGeometry width="50" height="50" relative="1" as="geometry">
            <mxPoint x="790" y="90" as="sourcePoint" />
            <mxPoint x="790" y="320" as="targetPoint" />
          </mxGeometry>
        </mxCell>
      </root>
    </mxGraphModel>
  </diagram>
</mxfile>
